<svg width="80" height="82" viewBox="0 0 80 82" fill="none" xmlns="http://www.w3.org/2000/svg">
<path d="M40 6.83325C21.6 6.83325 6.66667 22.1399 6.66667 40.9999C6.66667 59.8599 21.6 75.1666 40 75.1666H56.6667V68.3333H40C25.5333 68.3333 13.3333 55.8283 13.3333 40.9999C13.3333 26.1716 25.5333 13.6666 40 13.6666C54.4667 13.6666 66.6667 26.1716 66.6667 40.9999V45.8858C66.6667 48.5849 64.3 51.2499 61.6667 51.2499C59.0333 51.2499 56.6667 48.5849 56.6667 45.8858V40.9999C56.6667 31.5699 49.2 23.9166 40 23.9166C30.8 23.9166 23.3333 31.5699 23.3333 40.9999C23.3333 50.4299 30.8 58.0833 40 58.0833C44.6 58.0833 48.8 56.1699 51.8 53.0608C53.9667 56.1016 57.7 58.0833 61.6667 58.0833C68.2333 58.0833 73.3333 52.6166 73.3333 45.8858V40.9999C73.3333 22.1399 58.4 6.83325 40 6.83325ZM40 51.2499C34.4667 51.2499 30 46.6716 30 40.9999C30 35.3283 34.4667 30.7499 40 30.7499C45.5333 30.7499 50 35.3283 50 40.9999C50 46.6716 45.5333 51.2499 40 51.2499Z" fill="#CDEAE1"/>
</svg>
