<svg width="128" height="47" viewBox="0 0 128 47" fill="none" xmlns="http://www.w3.org/2000/svg">
<path d="M46.824 45.36H47.336V46H32.936V45.36H33.512C34.408 45.36 35.0693 45.0827 35.496 44.528C35.9653 43.9307 36.2 43.376 36.2 42.864C36.2 42.352 36.1147 41.84 35.944 41.328L31.848 30.448H14.568L10.28 41.392C10.1093 41.904 10.024 42.416 10.024 42.928C10.024 43.3973 10.2373 43.9307 10.664 44.528C11.1333 45.0827 11.816 45.36 12.712 45.36H13.288V46H0.424011V45.36H1.00001C2.06668 45.36 3.11201 45.0187 4.13601 44.336C5.16001 43.6533 5.99201 42.6507 6.63201 41.328L21.096 6.89599C22.6747 3.43999 23.464 1.24265 23.464 0.303986H24.04L41.192 41.328C41.7893 42.6507 42.6 43.6533 43.624 44.336C44.648 45.0187 45.7147 45.36 46.824 45.36ZM15.336 28.528H31.08L23.4 7.98399L15.336 28.528Z" fill="#F57730"/>
<path d="M85.4105 8.23999C84.4718 8.23999 83.6612 8.55999 82.9785 9.19999C82.2958 9.79732 81.9332 10.544 81.8905 11.44V38.704C81.8905 41.1787 82.0398 43.5253 82.3385 45.744L82.4665 46.896H81.8905L48.6105 15.344V42.032C48.6105 42.9707 48.9518 43.76 49.6345 44.4C50.3172 45.04 51.1492 45.36 52.1305 45.36H53.2185V46H41.1225V45.36H42.2105C43.1918 45.36 44.0238 45.04 44.7065 44.4C45.3892 43.76 45.7305 42.9707 45.7305 42.032V14.64C45.7305 12.0373 45.5812 9.71199 45.2825 7.66399L45.1545 6.63999L45.8585 6.70399L79.0745 38V11.44C78.9892 10.544 78.6052 9.79732 77.9225 9.19999C77.2398 8.55999 76.4292 8.23999 75.4905 8.23999H74.4025V7.59999H86.4985V8.23999H85.4105Z" fill="#F57730"/>
<path d="M126.902 45.36H127.414V46H113.014V45.36H113.59C114.486 45.36 115.147 45.0827 115.574 44.528C116.043 43.9307 116.278 43.376 116.278 42.864C116.278 42.352 116.192 41.84 116.022 41.328L111.926 30.448H94.6455L90.3575 41.392C90.1868 41.904 90.1015 42.416 90.1015 42.928C90.1015 43.3973 90.3148 43.9307 90.7415 44.528C91.2108 45.0827 91.8935 45.36 92.7895 45.36H93.3655V46H80.5015V45.36H81.0775C82.1442 45.36 83.1895 45.0187 84.2135 44.336C85.2375 43.6533 86.0695 42.6507 86.7095 41.328L101.174 6.89599C102.752 3.43999 103.542 1.24265 103.542 0.303986H104.118L121.27 41.328C121.867 42.6507 122.678 43.6533 123.702 44.336C124.726 45.0187 125.792 45.36 126.902 45.36ZM95.4135 28.528H111.158L103.478 7.98399L95.4135 28.528Z" fill="#F57730"/>
</svg>
