<svg width="92" height="30" viewBox="0 0 92 30" fill="none" xmlns="http://www.w3.org/2000/svg">
<path d="M8.85156 18.7891H19.2812L16.1172 9.53125C15.9609 9.0625 15.6484 8.13802 15.1797 6.75781C14.737 5.3776 14.4115 4.375 14.2031 3.75H13.9688C13.7865 4.32292 13.4609 5.28646 12.9922 6.64062C12.5495 7.99479 12.237 8.95833 12.0547 9.53125L8.85156 18.7891ZM0.84375 30L11.8594 0.195312H16.3125L27.2891 30H23.1875L20.375 21.8359H7.79688L4.94531 30H0.84375Z" fill="#F7600B"/>
<path d="M27.7016 30V8.47656H31.2953V11.8359H31.3344C31.6729 10.8724 32.4151 9.96094 33.5609 9.10156C34.7328 8.21615 36.1651 7.77344 37.8578 7.77344C39.9151 7.77344 41.5818 8.41146 42.8578 9.6875C44.1599 10.9635 44.8109 13.099 44.8109 16.0938V30H41.1V16.6797C41.1 12.7995 39.7458 10.8594 37.0375 10.8594C35.501 10.8594 34.1729 11.4974 33.0531 12.7734C31.9594 14.0234 31.4125 15.5339 31.4125 17.3047V30H27.7016Z" fill="#F7600B"/>
<path d="M48.075 30V8.47656H51.6688V11.8359H51.7078C52.0464 10.8724 52.7885 9.96094 53.9344 9.10156C55.1063 8.21615 56.5385 7.77344 58.2313 7.77344C60.2885 7.77344 61.9552 8.41146 63.2313 9.6875C64.5333 10.9635 65.1844 13.099 65.1844 16.0938V30H61.4734V16.6797C61.4734 12.7995 60.1193 10.8594 57.4109 10.8594C55.8745 10.8594 54.5464 11.4974 53.4266 12.7734C52.3328 14.0234 51.7859 15.5339 51.7859 17.3047V30H48.075Z" fill="#F7600B"/>
<path d="M73.3313 18.7891H83.7609L80.5969 9.53125C80.4406 9.0625 80.1281 8.13802 79.6594 6.75781C79.2167 5.3776 78.8911 4.375 78.6828 3.75H78.4484C78.2661 4.32292 77.9406 5.28646 77.4719 6.64062C77.0292 7.99479 76.7167 8.95833 76.5344 9.53125L73.3313 18.7891ZM65.3234 30L76.3391 0.195312H80.7922L91.7688 30H87.6672L84.8547 21.8359H72.2766L69.425 30H65.3234Z" fill="#F7600B"/>
</svg>
