<svg width="82" height="82" viewBox="0 0 82 82" fill="none" xmlns="http://www.w3.org/2000/svg">
<path d="M67.9063 71.75C60.959 71.75 54.0545 70.0417 47.1927 66.625C40.3309 63.2083 34.1667 58.7667 28.7 53.3C23.2333 47.8333 18.7917 41.6691 15.375 34.8073C11.9583 27.9455 10.25 21.041 10.25 14.0938C10.25 13.0118 10.6201 12.1007 11.3604 11.3604C12.1007 10.6201 13.0118 10.25 14.0938 10.25H26.0521C26.8493 10.25 27.5469 10.5205 28.1448 11.0615C28.7427 11.6024 29.1271 12.3285 29.2979 13.2396L31.6042 24.0021C31.7181 24.7993 31.7038 25.5253 31.5615 26.1802C31.4191 26.8351 31.1201 27.3903 30.6646 27.8458L22.1229 36.4729C25.3118 41.7688 28.8851 46.3813 32.8427 50.3104C36.8003 54.2396 41.2847 57.5708 46.2958 60.3042L54.4104 51.9333C54.9799 51.3069 55.6347 50.8656 56.375 50.6094C57.1153 50.3531 57.8556 50.3104 58.5958 50.4812L68.7604 52.7021C69.6146 52.8729 70.3264 53.3 70.8958 53.9833C71.4653 54.6667 71.75 55.4639 71.75 56.375V67.9063C71.75 68.9882 71.3799 69.8993 70.6396 70.6396C69.8993 71.3799 68.9882 71.75 67.9063 71.75ZM19.5604 31.775L26.4792 24.7708L24.5146 15.375H15.375C15.375 17.5958 15.7167 20.0302 16.4 22.6781C17.0833 25.326 18.1368 28.3583 19.5604 31.775ZM66.625 66.625V57.4854L57.8271 55.6917L51.0792 62.7813C53.4139 63.8632 55.9479 64.7458 58.6812 65.4292C61.4146 66.1125 64.0625 66.5111 66.625 66.625Z" fill="#CDEAE1"/>
</svg>
