<svg width="80" height="80" viewBox="0 0 80 80" fill="none" xmlns="http://www.w3.org/2000/svg">
<path d="M70 10H10V70H70V10ZM30 56.6667H21.59V33.3333H30V56.6667ZM25.6467 29.0567C23.0767 29.0567 21.36 27.3433 21.36 25.0567C21.36 22.77 23.0733 21.0567 25.93 21.0567C28.5 21.0567 30.2167 22.77 30.2167 25.0567C30.2167 27.3433 28.5033 29.0567 25.6467 29.0567ZM60 56.6667H51.86V43.9133C51.86 40.3867 49.69 39.5733 48.8767 39.5733C48.0633 39.5733 45.35 40.1167 45.35 43.9133C45.35 44.4567 45.35 56.6667 45.35 56.6667H36.94V33.3333H45.35V36.59C46.4333 34.69 48.6033 33.3333 52.6733 33.3333C56.7433 33.3333 60 36.59 60 43.9133V56.6667Z" fill="#CDEAE1"/>
</svg>
